<svg width="552" height="148" viewBox="0 0 552 148" fill="none" xmlns="http://www.w3.org/2000/svg">
<path d="M64.8739 46.5843C68.9562 47.6381 70.9973 50.2089 70.9973 54.2968V54.4948C71.023 55.7295 70.7457 56.9519 70.1894 58.0569C69.6331 59.1619 68.8144 60.1166 67.8036 60.8388C66.488 61.9012 64.8438 62.483 63.1468 62.4867C62.4063 62.4843 61.6686 62.3964 60.9486 62.225C58.0134 61.483 54.9962 61.1064 51.9669 61.1041C42.1181 61.1041 33.7121 64.5542 26.7489 71.4546C19.7857 78.355 16.3041 86.7076 16.3041 96.5124C16.3041 106.315 19.7857 114.666 26.7489 121.567C33.7144 128.427 42.1205 131.856 51.9669 131.854C54.9925 131.851 58.0071 131.494 60.9486 130.793C61.6685 130.62 62.4062 130.531 63.1468 130.527C64.8442 130.532 66.4883 131.115 67.8036 132.179C68.8196 132.893 69.6424 133.844 70.1995 134.948C70.7565 136.052 71.0305 137.275 70.9973 138.509V138.636C70.9973 142.766 68.9562 145.36 64.8739 146.416C60.6544 147.471 56.3189 148.004 51.9669 148C37.6409 148 25.3976 142.967 15.2372 132.9C5.07667 122.834 -0.00237811 110.7 8.35305e-07 96.4982C8.35305e-07 82.3014 5.07905 70.1686 15.2372 60.0998C25.3953 50.0309 37.6385 44.9977 51.9669 45C56.319 44.9946 60.6547 45.5268 64.8739 46.5843Z" fill="url(#paint0_linear_216_10)"/>
<path d="M121.947 0H57.9806C55.8419 0 53.7907 0.851578 52.2785 2.3674C50.7662 3.88321 49.9166 5.9391 49.9166 8.08279C49.9184 10.2249 50.769 12.2786 52.2812 13.7923C53.7934 15.3061 55.8434 16.1559 57.9806 16.1549H81.8925V76.9944C77.2894 75.206 72.392 74.3009 67.4553 74.3261C50.6361 74.3261 37 84.3275 37 96.6631C37 108.999 50.6361 119 67.4553 119C84.1717 119 97.7405 109.123 97.9035 96.8905C97.9821 96.4209 98.0213 95.9455 98.0205 95.4693V16.1549H121.936C124.075 16.1549 126.126 15.3033 127.638 13.7875C129.15 12.2717 130 10.2158 130 8.07213C129.996 5.93242 129.147 3.88143 127.637 2.36842C126.128 0.855418 124.081 0.00375718 121.947 0Z" fill="url(#paint1_linear_216_10)" fill-opacity="0.83"/>
<path d="M198.012 0C201.055 0 204.037 0.368981 206.957 1.10694C209.786 1.84491 211.2 3.64369 211.2 6.50329V6.64166C211.2 8.45582 210.462 9.93175 208.986 11.0694C208.003 11.8381 206.927 12.2225 205.759 12.2225C205.267 12.2225 204.76 12.161 204.237 12.038C202.177 11.5153 200.102 11.2539 198.012 11.2539C191.188 11.2539 185.362 13.6677 180.536 18.4952C175.71 23.3227 173.297 29.1649 173.297 36.0218C173.297 42.8787 175.71 48.7209 180.536 53.5484C185.362 58.3452 191.188 60.7435 198.012 60.7435C200.102 60.7435 202.177 60.4975 204.237 60.0056C204.76 59.8826 205.267 59.8211 205.759 59.8211C206.927 59.8211 208.003 60.2054 208.986 60.9742C210.462 62.0811 211.2 63.557 211.2 65.4019V65.4942C211.2 68.3845 209.786 70.1987 206.957 70.9366C204.037 71.6746 201.055 72.0436 198.012 72.0436C188.083 72.0436 179.599 68.5229 172.559 61.4815C165.52 54.4401 162 45.9535 162 36.0218C162 26.09 165.52 17.6035 172.559 10.5621C179.599 3.5207 188.083 0 198.012 0Z" fill="white"/>
<path d="M226.001 18.9103C227.569 18.9103 228.875 19.4638 229.92 20.5707C231.027 21.6776 231.58 22.9998 231.58 24.5373V66.4627C231.58 68.0309 231.027 69.3377 229.92 70.3832C228.875 71.4901 227.569 72.0436 226.001 72.0436H225.909C224.372 72.0436 223.05 71.4901 221.943 70.3832C220.837 69.3377 220.283 68.0309 220.283 66.4627V24.5373C220.283 22.9998 220.837 21.6776 221.943 20.5707C223.05 19.4638 224.372 18.9103 225.909 18.9103H226.001ZM225.955 12.9143C224.172 12.9143 222.65 12.284 221.39 11.0233C220.13 9.76263 219.499 8.24058 219.499 6.45717C219.499 4.70451 220.13 3.19784 221.39 1.93715C222.65 0.676466 224.172 0.0461227 225.955 0.0461227C227.707 0.0461227 229.213 0.676466 230.474 1.93715C231.765 3.16709 232.41 4.67376 232.41 6.45717C232.41 8.27133 231.765 9.79338 230.474 11.0233C229.213 12.284 227.707 12.9143 225.955 12.9143Z" fill="white"/>
<path d="M248.272 0C249.778 0 251.085 0.538098 252.192 1.61429C253.298 2.72124 253.851 4.04342 253.851 5.58084V18.9103H260.768C262.274 18.9103 263.581 19.4638 264.687 20.5707C265.794 21.6776 266.347 22.9998 266.347 24.5373V24.6295C266.347 26.1977 265.794 27.5045 264.687 28.5499C263.581 29.6569 262.274 30.2103 260.768 30.2103H253.851V57.5611C253.851 58.4528 254.159 59.2061 254.774 59.8211C255.389 60.4361 256.157 60.7435 257.079 60.7435H260.768C262.274 60.7435 263.581 61.297 264.687 62.404C265.794 63.5109 266.347 64.8331 266.347 66.3705V66.4627C266.347 68.0309 265.794 69.3377 264.687 70.3832C263.581 71.4901 262.274 72.0436 260.768 72.0436H257.079C253.083 72.0436 249.655 70.6292 246.797 67.8003C243.969 64.9407 242.555 61.5276 242.555 57.5611V5.58084C242.555 4.04342 243.108 2.72124 244.214 1.61429C245.321 0.538098 246.628 0 248.134 0H248.272Z" fill="white"/>
<path d="M284.1 48.7516C284.1 51.7957 285.16 54.394 287.281 56.5464C289.433 58.6988 292.046 59.775 295.12 59.775C298.133 59.775 300.715 58.6988 302.867 56.5464C305.018 54.394 306.094 51.7957 306.094 48.7516V24.5373C306.094 22.9998 306.648 21.6776 307.754 20.5707C308.861 19.4638 310.183 18.9103 311.72 18.9103H311.812C313.38 18.9103 314.686 19.4638 315.731 20.5707C316.838 21.6776 317.391 22.9998 317.391 24.5373V68.6766C317.391 74.7648 315.101 80.0228 310.521 84.4506C306.064 88.8169 300.93 91 295.12 91C290.509 91 286.313 89.8623 282.532 87.5869C278.843 85.373 276.046 82.4058 274.14 78.6852C273.71 77.855 273.494 77.0248 273.494 76.1946C273.494 75.4874 273.648 74.7802 273.956 74.073C274.57 72.4741 275.646 71.4132 277.183 70.8905L277.368 70.7983C278.044 70.583 278.705 70.4754 279.35 70.4754C280.027 70.4754 280.688 70.5984 281.333 70.8444C282.594 71.3671 283.546 72.2435 284.192 73.4734C285.176 75.3183 286.651 76.8096 288.619 77.9473C290.617 79.1157 292.784 79.6999 295.12 79.6999C298.04 79.6999 300.592 78.6238 302.774 76.4714C304.988 74.2575 306.094 71.6592 306.094 68.6766V68.3077C303.666 70.1218 300.008 71.0289 295.12 71.0289C288.972 71.0289 283.716 68.8457 279.35 64.4795C274.985 60.1439 272.803 54.9013 272.803 48.7516V24.5373C272.803 22.9998 273.356 21.6776 274.463 20.5707C275.569 19.4638 276.876 18.9103 278.382 18.9103H278.52C280.027 18.9103 281.333 19.4638 282.44 20.5707C283.546 21.6776 284.1 22.9998 284.1 24.5373V48.7516Z" fill="white"/>
<path d="M397.024 5.67309C397.024 7.21051 396.47 8.53269 395.364 9.63963C394.288 10.7158 392.981 11.2539 391.444 11.2539H380.193V66.4627C380.193 68.0002 379.655 69.307 378.58 70.3832C377.473 71.4901 376.151 72.0436 374.614 72.0436H374.522C372.985 72.0436 371.663 71.4901 370.556 70.3832C369.48 69.307 368.943 68.0002 368.943 66.4627V11.2539H357.692C356.185 11.2539 354.879 10.7158 353.772 9.63963C352.666 8.53269 352.112 7.21051 352.112 5.67309V5.58084C352.112 4.04342 352.666 2.72124 353.772 1.61429C354.879 0.538098 356.185 0 357.692 0H391.444C392.981 0 394.288 0.538098 395.364 1.61429C396.47 2.72124 397.024 4.04342 397.024 5.58084V5.67309Z" fill="white"/>
<path d="M428.655 30.3026C424.413 30.3026 420.801 31.7939 417.819 34.7765C414.868 37.7591 413.393 41.372 413.393 45.6153V45.9382L439.168 34.3614C436.894 31.6555 433.389 30.3026 428.655 30.3026ZM452.771 34.4075C453.14 35.1762 453.324 35.9603 453.324 36.7598C453.324 37.4055 453.201 38.0512 452.955 38.6969C452.433 40.1421 451.449 41.1875 450.004 41.8332C445.701 43.7704 440.044 46.3225 433.036 49.4896C424.336 53.4254 419.233 55.7469 417.727 56.4541C420.063 59.406 423.706 60.8819 428.655 60.8819C431.944 60.8819 434.926 59.9133 437.601 57.9762C440.214 56.0698 442.043 53.6099 443.088 50.5966C443.979 48.0752 445.762 46.8145 448.437 46.8145C450.342 46.8145 451.864 47.614 453.001 49.2129C453.708 50.1968 454.062 51.2269 454.062 52.3031C454.062 52.9488 453.939 53.6099 453.693 54.2864C451.879 59.5443 448.698 63.7876 444.148 67.0162C439.537 70.3678 434.373 72.0436 428.655 72.0436C421.339 72.0436 415.083 69.4453 409.888 64.2489C404.693 59.0524 402.096 52.7951 402.096 45.4769C402.096 38.1588 404.693 31.9015 409.888 26.705C415.083 21.5085 421.339 18.9103 428.655 18.9103C433.943 18.9103 438.769 20.3555 443.134 23.2458C447.468 26.0747 450.681 29.7952 452.771 34.4075Z" fill="white"/>
<path d="M487.584 18.9103C490.351 18.9103 493.025 19.3254 495.607 20.1556C498.22 20.9858 499.527 22.7692 499.527 25.5058V25.7364C499.527 27.6121 498.773 29.1034 497.267 30.2103C496.222 30.9483 495.146 31.3173 494.039 31.3173C493.455 31.3173 492.856 31.225 492.241 31.0405C490.735 30.5486 489.183 30.3026 487.584 30.3026C483.342 30.3026 479.73 31.7939 476.748 34.7765C473.797 37.7591 472.322 41.372 472.322 45.6153C472.322 49.8278 473.797 53.4254 476.748 56.408C479.73 59.3906 483.342 60.8819 487.584 60.8819C489.183 60.8819 490.735 60.6359 492.241 60.1439C492.825 59.9595 493.409 59.8672 493.993 59.8672C495.131 59.8672 496.222 60.2362 497.267 60.9742C498.773 62.0811 499.527 63.5878 499.527 65.4942C499.527 68.2 498.22 69.9834 495.607 70.8444C493.025 71.6439 490.351 72.0436 487.584 72.0436C480.268 72.0436 474.012 69.4453 468.817 64.2489C463.622 59.0524 461.025 52.7951 461.025 45.4769C461.025 38.1588 463.622 31.9015 468.817 26.705C474.012 21.5085 480.268 18.9103 487.584 18.9103Z" fill="white"/>
<path d="M513.129 0C514.635 0 515.942 0.538098 517.048 1.61429C518.155 2.72124 518.708 4.04342 518.708 5.58084V21.6315C521.137 19.8174 524.81 18.9103 529.729 18.9103C535.846 18.9103 541.087 21.0934 545.452 25.4597C549.817 29.826 552 35.084 552 41.2337V66.4627C552 68.0309 551.447 69.3377 550.34 70.3832C549.295 71.4901 547.988 72.0436 546.421 72.0436H546.328C544.791 72.0436 543.47 71.4901 542.363 70.3832C541.256 69.3377 540.703 68.0309 540.703 66.4627V41.2337C540.703 38.1896 539.642 35.5913 537.521 33.4389C535.37 31.2865 532.772 30.2103 529.729 30.2103C526.655 30.2103 524.042 31.2865 521.89 33.4389C519.769 35.5913 518.708 38.1896 518.708 41.2337V66.4627C518.708 68.0309 518.155 69.3377 517.048 70.3832C515.942 71.4901 514.635 72.0436 513.129 72.0436H512.991C511.485 72.0436 510.178 71.4901 509.071 70.3832C507.965 69.3377 507.411 68.0309 507.411 66.4627V5.58084C507.411 4.04342 507.965 2.72124 509.071 1.61429C510.178 0.538098 511.485 0 512.991 0H513.129Z" fill="white"/>
<path d="M162 139.267H164.715V127.059C164.758 122.48 166.653 119.004 171.35 119.004C174.797 119.004 176.046 121.463 176.003 124.43V139.267H178.718V126.889C178.718 122.82 180.054 119.004 184.75 119.004C188.628 119.004 190.007 120.954 190.007 124.558V139.267H192.721V124.43C192.721 119.259 190.222 116.758 185.353 116.758C182.423 116.758 179.623 118.157 178.287 121.039C177.468 118.157 174.84 116.758 171.91 116.758C168.377 116.758 166.05 118.453 164.628 121.082H164.499V117.393H162V139.267Z" fill="white"/>
<path d="M215.903 117.393H213.188V128.882C213.188 133.333 211.163 137.657 206.51 137.657C202.201 137.657 200.693 135.579 200.563 131.637V117.393H197.849V131.595C197.849 136.682 200.046 139.903 205.648 139.903C208.965 139.903 211.895 138.25 213.317 135.325H213.403V139.267H215.903V117.393Z" fill="white"/>
<path d="M237.063 123.795C236.891 119.047 233.358 116.758 228.92 116.758C224.999 116.758 220.561 118.453 220.561 122.904C220.561 126.635 223.232 127.822 226.765 128.754L230.255 129.517C232.711 130.111 235.124 130.959 235.124 133.502C235.124 136.554 231.591 137.657 229.049 137.657C225.43 137.657 222.715 135.791 222.5 132.188H219.785C220.216 137.529 223.749 139.903 228.92 139.903C233.056 139.903 237.839 138.08 237.839 133.333C237.839 129.517 234.607 127.737 231.505 127.271L227.886 126.465C226.033 125.999 223.275 125.151 223.275 122.777C223.275 119.937 226.119 119.004 228.532 119.004C231.634 119.004 234.219 120.488 234.349 123.795H237.063Z" fill="white"/>
<path d="M241.822 139.267H244.536V117.393H241.822V139.267ZM241.822 113.282H244.536V109H241.822V113.282Z" fill="white"/>
<path d="M268.13 124.261C267.527 119.259 263.864 116.758 259.125 116.758C252.317 116.758 248.611 122.057 248.611 128.33C248.611 134.604 252.317 139.903 259.125 139.903C264.08 139.903 267.57 136.682 268.302 131.425H265.588C265.243 135.071 262.485 137.657 259.125 137.657C253.911 137.657 251.326 132.993 251.326 128.33C251.326 123.667 253.911 119.004 259.125 119.004C262.658 119.004 264.683 120.997 265.415 124.261H268.13Z" fill="white"/>
<path d="M292.641 117.393H288.246V115.486C288.289 113.112 288.203 111.247 291.219 111.247C291.865 111.247 292.469 111.332 293.201 111.459V109.17C292.339 109.042 291.693 109 290.918 109C286.566 109 285.489 111.628 285.532 115.401V117.393H281.74V119.64H285.532V139.267H288.246V119.64H292.641V117.393Z" fill="white"/>
<path d="M304.61 116.758C297.802 116.758 294.097 122.057 294.097 128.33C294.097 134.604 297.802 139.903 304.61 139.903C311.418 139.903 315.124 134.604 315.124 128.33C315.124 122.057 311.418 116.758 304.61 116.758ZM304.61 119.004C309.824 119.004 312.409 123.667 312.409 128.33C312.409 132.993 309.824 137.657 304.61 137.657C299.397 137.657 296.811 132.993 296.811 128.33C296.811 123.667 299.397 119.004 304.61 119.004Z" fill="white"/>
<path d="M319.159 139.267H321.874V127.61C321.874 123.074 325.235 119.513 330.147 119.767V117.097C326.139 116.927 323.123 119.004 321.744 122.523H321.658V117.393H319.159V139.267Z" fill="white"/>
<path d="M358.961 130.789C359.004 135.071 355.342 137.657 351.205 137.657C348.663 137.657 346.25 136.003 346.25 133.333C346.25 129.051 351.981 129.093 356.591 128.288C357.324 128.161 358.53 127.949 358.875 127.313H358.961V130.789ZM347.198 124.091C347.284 120.53 349.784 119.004 353.144 119.004C356.333 119.004 358.961 119.895 358.961 123.498C358.961 125.914 357.712 126.211 355.471 126.465C349.611 127.143 343.536 127.355 343.536 133.502C343.536 137.911 346.897 139.903 350.99 139.903C355.256 139.903 357.195 138.292 359.09 135.452H359.177C359.177 137.741 359.607 139.267 362.365 139.267C363.098 139.267 363.528 139.225 364.132 139.098V136.851C363.916 136.936 363.571 137.021 363.27 137.021C362.193 137.021 361.676 136.427 361.676 135.41V123.795C361.676 117.945 357.41 116.758 353.489 116.758C348.405 116.758 344.742 118.962 344.484 124.091H347.198Z" fill="white"/>
<path d="M387.997 136.766C382.998 136.766 380.672 132.485 380.672 128.076C380.672 123.54 382.826 119.004 387.997 119.004C393.124 119.004 395.149 123.795 395.149 128.076C395.149 132.527 392.693 136.766 387.997 136.766ZM397.864 117.393H395.149V121.166H395.063C393.986 118.75 391.228 116.758 387.997 116.758C381.577 116.758 377.957 121.76 377.957 127.779C377.957 134.011 380.887 139.013 387.997 139.013C391.185 139.013 393.813 137.19 395.063 134.52H395.149V137.487C395.149 142.828 392.995 145.753 387.997 145.753C384.981 145.753 382.094 144.609 381.49 141.387H378.776C379.164 146.05 383.559 148 387.997 148C395.278 148 397.821 144.015 397.864 137.487V117.393Z" fill="white"/>
<path d="M412.413 116.758C405.605 116.758 401.899 122.057 401.899 128.33C401.899 134.604 405.605 139.903 412.413 139.903C419.22 139.903 422.926 134.604 422.926 128.33C422.926 122.057 419.22 116.758 412.413 116.758ZM412.413 119.004C417.626 119.004 420.211 123.667 420.211 128.33C420.211 132.993 417.626 137.657 412.413 137.657C407.199 137.657 404.614 132.993 404.614 128.33C404.614 123.667 407.199 119.004 412.413 119.004Z" fill="white"/>
<path d="M436.355 116.758C429.547 116.758 425.841 122.057 425.841 128.33C425.841 134.604 429.547 139.903 436.355 139.903C443.162 139.903 446.868 134.604 446.868 128.33C446.868 122.057 443.162 116.758 436.355 116.758ZM436.355 119.004C441.568 119.004 444.154 123.667 444.154 128.33C444.154 132.993 441.568 137.657 436.355 137.657C431.141 137.657 428.556 132.993 428.556 128.33C428.556 123.667 431.141 119.004 436.355 119.004Z" fill="white"/>
<path d="M452.67 128.33C452.67 123.795 454.782 119.004 459.952 119.004C465.726 119.004 467.751 123.795 467.751 128.33C467.751 132.866 465.726 137.657 459.952 137.657C454.782 137.657 452.67 132.866 452.67 128.33ZM470.465 109H467.751V121.548H467.665C466.501 118.411 463.27 116.758 459.952 116.758C453.187 116.758 449.956 122.141 449.956 128.33C449.956 134.52 453.187 139.903 459.952 139.903C463.184 139.903 466.717 137.953 467.88 135.113H467.966V139.267H470.465V109Z" fill="white"/>
<path d="M489.404 128.33C489.404 123.795 491.515 119.004 496.686 119.004C502.459 119.004 504.484 123.795 504.484 128.33C504.484 132.866 502.459 137.657 496.686 137.657C491.515 137.657 489.404 132.866 489.404 128.33ZM507.199 109H504.484V121.548H504.398C503.235 118.411 500.003 116.758 496.686 116.758C489.921 116.758 486.689 122.141 486.689 128.33C486.689 134.52 489.921 139.903 496.686 139.903C499.917 139.903 503.45 137.953 504.614 135.113H504.7V139.267H507.199V109Z" fill="white"/>
<path d="M526.598 130.789C526.641 135.071 522.978 137.657 518.842 137.657C516.3 137.657 513.887 136.003 513.887 133.333C513.887 129.051 519.618 129.093 524.228 128.288C524.96 128.161 526.167 127.949 526.512 127.313H526.598V130.789ZM514.835 124.091C514.921 120.53 517.42 119.004 520.781 119.004C523.969 119.004 526.598 119.895 526.598 123.498C526.598 125.914 525.348 126.211 523.108 126.465C517.248 127.143 511.172 127.355 511.172 133.502C511.172 137.911 514.533 139.903 518.627 139.903C522.892 139.903 524.831 138.292 526.727 135.452H526.813C526.813 137.741 527.244 139.267 530.002 139.267C530.734 139.267 531.165 139.225 531.768 139.098V136.851C531.553 136.936 531.208 137.021 530.906 137.021C529.829 137.021 529.312 136.427 529.312 135.41V123.795C529.312 117.945 525.047 116.758 521.126 116.758C516.041 116.758 512.379 118.962 512.12 124.091H514.835Z" fill="white"/>
<path d="M541.099 139.183L540.151 141.684C539.246 143.718 538.686 145.117 536.273 145.117C535.67 145.117 535.067 145.033 534.42 144.905V147.152C534.851 147.322 535.411 147.322 536.489 147.364C539.892 147.364 540.797 146.304 542.348 142.616L552 117.393H549.285L542.435 136.046L535.11 117.393H532.223L541.099 139.183Z" fill="white"/>
<defs>
<linearGradient id="paint0_linear_216_10" x1="35.5" y1="45" x2="35.5" y2="148" gradientUnits="userSpaceOnUse">
<stop stop-color="#F9471C"/>
<stop offset="0.661458" stop-color="#FD7351"/>
</linearGradient>
<linearGradient id="paint1_linear_216_10" x1="83.5" y1="0" x2="83.5" y2="119" gradientUnits="userSpaceOnUse">
<stop stop-color="#4200B1"/>
<stop offset="0.619792" stop-color="#7659F2"/>
</linearGradient>
</defs>
</svg>
